{"title":"Elysium.2013.1080p.Blu-ray.AVC.DTS-HD.MA.7.1-REK Multisub","uid":9275885,"size":8053437690,"categoryP":"video","categoryS":"hd___movies","magnet":"?xt=urn:btih:dfd39d69b5850b7f36ef9bf95987516f018217af&amp;dn=Elysium.2013.1080p.Blu-ray.AVC.DTS-HD.MA.7.1-REK+Multisub&amp;tr=udp%3A%2F%2Ftracker.openbittorrent.com%3A80&amp;tr=udp%3A%2F%2Fopen.demonii.com%3A1337&amp;tr=udp%3A%2F%2Ftracker.coppersurfer.tk%3A6969&amp;tr=udp%3A%2F%2Fexodus.desync.com%3A6969","seeders":1,"leechers":0,"uploader":null,"files":1,"time":1385854287,"description":"In the year 2154, the very wealthy live on a man-made space station while the rest of the population resides on a ruined Earth. A man takes on a mission that could bring equality to the polarized worlds.\n\nDirector: Neill Blomkamp\nWriter: Neill Blomkamp\nStars: Matt Damon, Jodie Foster, Sharlto Copley \n\n\n\n -----------------------------------------------------------------------\n\nFormat                                   : Matroska\nFormat version                           : Version 2\nFile size                                : 7.50 GiB\nDuration                                 : 1h 49mn\nOverall bit rate mode                    : Variable\nOverall bit rate                         : 9 798 Kbps\nMovie name                               : Elysium.2013.1080p.Blu-ray.AVC.DTS-HD.MA.7.1-NiP.Title1.BlurayRip\nEncoded date                             : UTC 2013-11-30 20:02:32\nWriting application                      : DVDFab\nWriting library                          : libebml v0.7.8 + libmatroska v0.8.1\n\nVideo\nID                                       : 1\nFormat                                   : AVC\nFormat/Info                              : Advanced Video Codec\nFormat profile                           : &lt;a class=&quot;__cf_email__&quot; href=&quot;/cdn-cgi/l/email-protection&quot; data-cfemail=&quot;91d9f8f6f9d1dda5bfa1&quot;&gt;[email&amp;#160;protected]&lt;/a&gt;&lt;script cf-hash='f9e31' type=&quot;text/javascript&quot;&gt;\n/* &lt;![CDATA[ */!function(){try{var t=&quot;currentScript&quot;in document?document.currentScript:function(){for(var t=document.getElementsByTagName(&quot;script&quot;),e=t.length;e--;)if(t[e].getAttribute(&quot;cf-hash&quot;))return t[e]}();if(t&amp;&amp;t.previousSibling){var e,r,n,i,c=t.previousSibling,a=c.getAttribute(&quot;data-cfemail&quot;);if(a){for(e=&quot;&quot;,r=parseInt(a.substr(0,2),16),n=2;a.length-n;n+=2)i=parseInt(a.substr(n,2),16)^r,e+=String.fromCharCode(i);e=document.createTextNode(e),c.parentNode.replaceChild(e,c)}}}catch(u){}}();/* ]]&gt; */&lt;/script&gt;\nFormat settings, CABAC                   : Yes\nFormat settings, ReFrames                : 2 frames\nCodec ID                                 : V_MPEG4/ISO/AVC\nDuration                                 : 1h 49mn\nBit rate mode                            : Variable\nBit rate                                 : 9 155 Kbps\nMaximum bit rate                         : 13.9 Mbps\nWidth                                    : 1 920 pixels\nHeight                                   : 804 pixels\nDisplay aspect ratio                     : 2.40:1\nFrame rate mode                          : Constant\nFrame rate                               : 23.976 fps\nColor space                              : YUV\nChroma subsampling                       : 4:2:0\nBit depth                                : 8 bits\nScan type                                : Progressive\nBits/(Pixel*Frame)                       : 0.247\nStream size                              : 7.01 GiB (93%)\nDefault                                  : Yes\nForced                                   : No\n\nAudio\nID                                       : 2\nFormat                                   : AC-3\nFormat/Info                              : Audio Coding 3\nMode extension                           : CM (complete main)\nFormat settings, Endianness              : Big\nCodec ID                                 : A_AC3\nDuration                                 : 1h 49mn\nBit rate mode                            : Constant\nBit rate                                 : 448 Kbps\nChannel(s)                               : 6 channels\nChannel positions                        : Front: L C R, Side: L R, LFE\nSampling rate                            : 48.0 KHz\nBit depth                                : 16 bits\nCompression mode                         : Lossy\nStream size                              : 351 MiB (5%)\nLanguage                                 : English\nDefault                                  : Yes\nForced                                   : No\n\nSubtitles: English, Bulgarian, Croatian, Czech, Estonian, Greek, Hebrew, Hindi, Hungarian, Icelandic, Latvian, Lithuanian, Polish, Portuguese, Romanian, Russian, Serbian, Slovak, Slovenian, Tamil, Telugu, Turkish","torrent":{"xt":"urn:btih:dfd39d69b5850b7f36ef9bf95987516f018217af","amp;dn":"Elysium.2013.1080p.Blu-ray.AVC.DTS-HD.MA.7.1-REK+Multisub","amp;tr":["udp%3A%2F%2Ftracker.openbittorrent.com%3A80","udp%3A%2F%2Fopen.demonii.com%3A1337","udp%3A%2F%2Ftracker.coppersurfer.tk%3A6969","udp%3A%2F%2Fexodus.desync.com%3A6969"],"infoHash":"dfd39d69b5850b7f36ef9bf95987516f018217af","infoHashBuffer":{"type":"Buffer","data":[223,211,157,105,181,133,11,127,54,239,155,249,89,135,81,111,1,130,23,175]},"announce":[],"urlList":[]}}